# xmcd
#
# Track frame offsets:
#	150
#	21497
#	31865
#	49222
#	69135
#	84322
#	101447
#	114682
#	130090
#	145465
#	176257
#	187445
#
# Disc length: 2664 seconds
#
# Revision: 1
# Processed by: cddbd v1.5.2PL0 Copyright (c) Steve Scherf et al.
# Submitted via: EZCDAudioConverter 9.1.1.1
#
DISCID=a40a660c
DTITLE=ZZ Top - Blue Jean Blues
DYEAR=2005
DGENRE=Blues
TTITLE0=Blue Jean Blues
TTITLE1=Tush
TTITLE2=Just Got Paid
TTITLE3=Ko Ko Blues
TTITLE4=Chevrolet
TTITLE5=Mushmouth Shoutin
TTITLE6=Francine
TTITLE7=Bar B-Q
TTITLE8=Whisky'n Mama
TTITLE9=Sure Got Gold After The Rain Fell
TTITLE10=Down Brownie
TTITLE11=Apologies To Pearly
EXTD=
EXTT0=
EXTT1=
EXTT2=
EXTT3=
EXTT4=
EXTT5=
EXTT6=
EXTT7=
EXTT8=
EXTT9=
EXTT10=
EXTT11=
PLAYORDER=
